<?xml version="1.0" standalone="no"?>
<!DOCTYPE svg PUBLIC "-//W3C//DTD SVG 20010904//EN"
 "http://www.w3.org/TR/2001/REC-SVG-20010904/DTD/svg10.dtd">
<svg version="1.0" xmlns="http://www.w3.org/2000/svg"
 width="400.000000pt" height="400.000000pt" viewBox="0 0 400.000000 400.000000"
 preserveAspectRatio="xMidYMid meet">
<metadata>
Created by potrace 1.11, written by Peter Selinger 2001-2013
</metadata>
<g transform="translate(0.000000,400.000000) scale(0.100000,-0.100000)"
fill="#000000" stroke="none">
<path d="M2400 2976 c-41 -11 -45 -15 -48 -45 l-3 -33 -22 20 c-12 10 -36 22
-53 25 -25 5 -36 1 -58 -22 -15 -15 -26 -39 -26 -54 0 -24 -2 -26 -20 -15 -16
10 -23 9 -45 -12 -14 -13 -25 -33 -25 -44 -1 -12 -7 -32 -15 -46 -8 -14 -14
-46 -15 -71 0 -39 4 -48 25 -59 24 -13 25 -17 25 -106 0 -72 -3 -93 -15 -98
-23 -8 -20 -91 3 -108 15 -10 19 -28 20 -83 l2 -70 -22 26 c-13 14 -113 137
-223 272 l-200 246 -282 0 c-156 1 -283 0 -283 -2 0 -2 27 -66 60 -142 l60
-138 0 -564 c0 -497 -2 -568 -16 -595 -9 -17 -35 -77 -59 -134 l-44 -104 285
0 286 0 -4 395 c-2 217 -3 395 -2 395 0 0 149 -178 330 -395 l329 -394 232 -1
233 0 0 642 c0 479 3 643 11 649 16 9 15 84 0 103 -8 9 -13 47 -13 98 0 76 2
84 26 105 37 31 36 89 -1 134 -16 19 -26 42 -25 55 3 23 -51 84 -75 84 -7 0
-13 6 -13 14 0 20 -21 34 -69 45 -39 9 -43 8 -53 -15 -15 -32 -26 -30 -30 3
-3 23 -10 29 -53 40 -58 15 -56 15 -115 -1z m36 -135 c-9 -10 -16 -23 -16 -29
0 -7 -4 -12 -9 -12 -5 0 -23 -3 -40 -6 -37 -8 -40 6 -11 43 11 14 20 40 20 58
0 28 5 33 33 41 l32 10 3 -44 c2 -30 -2 -50 -12 -61z m-146 25 c0 -26 -6 -48
-15 -56 -8 -7 -15 -18 -15 -24 0 -12 -70 -49 -78 -41 -3 2 3 16 12 29 9 14 16
42 16 62 0 38 29 73 63 74 14 0 17 -9 17 -44z m-130 -77 c0 -17 -7 -45 -16
-62 -9 -18 -20 -38 -24 -46 -3 -8 -11 -16 -17 -18 -14 -5 -8 40 10 74 9 15 18
40 22 56 7 37 25 34 25 -4z m290 -187 l0 -138 -80 -10 -80 -9 0 132 c0 73 2
133 4 133 2 0 11 3 20 6 14 5 16 -5 16 -75 0 -73 2 -81 19 -81 46 0 51 8 51
90 0 80 1 82 43 89 4 0 7 -61 7 -137z m-200 -32 l0 -130 -62 -49 c-56 -44 -63
-47 -66 -29 -2 11 3 27 12 37 11 12 16 44 18 121 2 69 7 105 15 107 9 3 11
-14 10 -61 -1 -36 -1 -66 1 -66 2 0 12 5 23 11 18 9 20 19 18 84 -1 48 2 80
11 90 7 8 14 15 16 15 2 0 4 -58 4 -130z m200 -485 c0 -173 -2 -315 -4 -315
-2 0 -38 42 -80 93 l-76 94 0 211 0 211 58 6 c31 3 64 8 72 9 8 2 18 4 23 5 4
0 7 -141 7 -314z m-200 98 c-1 -142 -3 -175 -13 -162 -7 8 -29 36 -49 61 -37
44 -38 46 -38 129 l1 84 42 32 c23 17 45 32 50 32 4 1 7 -79 7 -176z"/>
<path d="M2838 1073 c6 -2 12 -16 12 -29 0 -34 17 -30 22 6 4 27 2 30 -21 29
-14 0 -20 -3 -13 -6z"/>
<path d="M2888 1050 c-5 -32 7 -42 15 -12 4 16 5 16 6 0 1 -19 21 -25 21 -7 0
8 5 7 16 -2 14 -11 15 -9 12 16 -3 32 -28 47 -28 18 -1 -17 -1 -17 -11 0 -15
25 -26 21 -31 -13z"/>
</g>
</svg>
